<svg xmlns="http://www.w3.org/2000/svg" viewBox="0 0 2212.93 1351.64"><defs><style>.cls-1{fill:#ff4e00;}</style></defs><title>evnos svg</title><g id="Layer_2" data-name="Layer 2"><g id="Layer_1-2" data-name="Layer 1"><g id="Layer_1-2-2" data-name="Layer 1-2"><path class="cls-1" d="M669.77,635.72c28.62-11.88,55.08-22.63,81.37-33.8,168.49-71.61,337.72-141.36,510.25-202.81,137.61-49,276.53-93.85,418.64-128,50.74-12.21,101.93-22.61,153.11-32.83,25.72-5.13,51.82-8.59,77.87-11.74q38.46-4.65,77.16-7c38.24-2.32,76.55-5,114.82-4.89,23.64,0,47.44,3.93,70.82,8,9.67,1.71,19.24,7.45,27.43,13.34,11.84,8.5,13.39,21.7,10.34,35a83.49,83.49,0,0,1-28.12,46.56c-66.67,56.67-138,107.06-210.8,155.23-43.63,28.85-88.24,56.23-132.8,83.61-7.92,4.86-17.59,7.57-26.83,9.37-8.8,1.72-13.47-2.23-16.14-11-2.16-7.1-3.39-14.48-5.54-21.58-9.23-30.43-18.44-60.88-28.11-91.17-4.19-13.14-9.47-25.93-14.49-39.51-18.83,5.25-37.28,10.32-55.68,15.54-169.09,48-337.41,98.53-504,154.79-102.28,34.46-201.6,76.27-300.49,119.27Q803.77,729,718.81,765.52a23.67,23.67,0,0,1-7.39,1.93c-16.38,1.18-27.42,16.29-22.3,32.93,9.37,30.45,23,58.93,38.06,86.81,27.75,51.55,61.33,98.82,103.67,139.63,26.41,25.46,57.16,44.84,88,64.24,51.54,32.45,104.84,61.28,163.13,80a462.66,462.66,0,0,0,81,18.64c20.28,2.68,41,3.2,61.48,3,62.71-.48,123.07-12.68,180-39.52,84.72-39.92,162.6-89.9,228-157.69,24.24-25.11,45.08-52.75,59-85.18A75.53,75.53,0,0,1,1718,878a63.59,63.59,0,0,1,16.11-8.41c13-4.35,19.58,1.72,19.24,15.43-.42,17.08-8.5,31.54-14.67,46.58-27.86,67.9-63.51,131.28-111,187.6-40.22,47.71-87.23,87-142.61,116.3-54.32,28.72-108.35,58-166.27,79.07-38.07,13.88-77,24.42-117.07,30.57a592.42,592.42,0,0,1-109,6.09c-33.5-1.08-66.54-5.28-99.42-11.39-57.71-10.73-114-26.94-167.87-49.89-41.37-17.61-81.14-39-121.65-58.59-58.43-28.32-116.06-58.45-177-81.16A640.72,640.72,0,0,0,453.51,1128c-18.6-4.5-37.93-6.89-57.07-8.1-25.67-1.63-51.5-2.22-77.2-1.36-23.24.77-46.35,4.75-69.59,6.1-26,1.5-52,1.85-78,2.26-18.78.3-37.62.71-56.34-.44-27-1.66-54.12-3.57-80-12.51a105.3,105.3,0,0,1-22-10.76c-9.77-6.24-17.19-19.25-11.1-35,5.21-13.43,13.35-24.75,23-35.1,26.34-28.33,57.06-51.63,87.41-75.32,41.26-32.2,83.37-63.35,123.76-96.61,74.88-61.65,125.83-140,158.39-231.1,28.88-80.82,60.85-160.44,99.92-237,35.75-70,76.82-136.61,128.22-196.41C683.68,126.05,754.76,69.4,842.49,35.42a447.89,447.89,0,0,1,105.17-27c21-2.7,42.32-3.61,63.53-4.56,36.65-1.65,73.32-3.19,110-3.8,19.6-.33,39.27.83,58.83,2.28,51.65,3.83,103.14,8.91,153.09,23.84a239.93,239.93,0,0,1,64.82,30c15.78,10.48,32.89,19,49.52,28.11,17.43,9.61,17.58,14.45,2,26.88-7.86,6.29-14.54,7.27-24.54,4.11-26.07-8.22-52.57-15.36-79.29-21.12-25.21-5.44-50.78-10.18-76.44-12.3a679.1,679.1,0,0,0-87.7-1.83c-109.12,5.1-206.36,41.21-288.83,114.2-28,24.73-56.71,48.61-83.79,74.27-68,64.43-108.61,143.93-125.39,235.71C679.13,528,676.26,552,673.69,576,671.67,595.14,671.07,614.52,669.77,635.72Z"/></g></g></g></svg>